<svg xmlns="http://www.w3.org/2000/svg" width="84.219" height="98" viewBox="0 0 84.219 98"><defs><style>.a{fill:#0bc9ec;}</style></defs><g transform="translate(-36)"><g transform="translate(36 0)"><path class="a" d="M238.406,182.774c-2.434,0-4.165,1.028-4.165,2.542v20.609c0,1.3,1.731,2.6,4.165,2.6,2.326,0,4.219-1.3,4.219-2.6V185.316C242.625,183.8,240.732,182.774,238.406,182.774Z" transform="translate(-196.296 -147.79)"/><path class="a" d="M237.264,116.361a3.9,3.9,0,1,0,4.382,3.841A4.19,4.19,0,0,0,237.264,116.361Z" transform="translate(-195.154 -94.089)"/><path class="a" d="M78.109,0A42.087,42.087,0,0,0,65.365,82.206l9.576,14.116a3.828,3.828,0,0,0,6.336,0l9.576-14.116A42.087,42.087,0,0,0,78.109,0ZM87.42,75.242a3.829,3.829,0,0,0-2.137,1.538L78.109,87.353,70.936,76.779A3.829,3.829,0,0,0,68.8,75.242a34.453,34.453,0,1,1,18.622,0Z" transform="translate(-36 0)"/></g></g></svg>